<mxfile host="app.diagrams.net" modified="2024-03-16T12:30:11.743Z" agent="Mozilla/5.0 (Windows NT 10.0; Win64; x64) AppleWebKit/537.36 (KHTML, like Gecko) Chrome/122.0.0.0 Safari/537.36" etag="-plGHD_iZiXSVsonDg1E" version="24.0.6" type="device">
  <diagram name="Página-1" id="z3ueqdOhkrpOLF6dDZPb">
    <mxGraphModel dx="1161" dy="682" grid="1" gridSize="10" guides="1" tooltips="1" connect="1" arrows="1" fold="1" page="1" pageScale="1" pageWidth="1169" pageHeight="827" math="0" shadow="0">
      <root>
        <mxCell id="0" />
        <mxCell id="1" parent="0" />
        <mxCell id="iCuu217W0c6Vcr2kREvH-1" value="" style="rounded=0;whiteSpace=wrap;html=1;" vertex="1" parent="1">
          <mxGeometry x="290" y="250" width="220" height="230" as="geometry" />
        </mxCell>
        <mxCell id="W5E3yV-P_dr5y2_dL0nt-1" value="Usuário&lt;div&gt;&lt;br&gt;&lt;/div&gt;" style="shape=umlActor;verticalLabelPosition=bottom;verticalAlign=top;html=1;outlineConnect=0;" parent="1" vertex="1">
          <mxGeometry x="180" y="334" width="50" height="80" as="geometry" />
        </mxCell>
        <mxCell id="W5E3yV-P_dr5y2_dL0nt-2" value="" style="endArrow=classic;html=1;rounded=0;" parent="1" edge="1">
          <mxGeometry width="50" height="50" relative="1" as="geometry">
            <mxPoint x="230" y="379.58" as="sourcePoint" />
            <mxPoint x="380" y="379.58" as="targetPoint" />
          </mxGeometry>
        </mxCell>
        <mxCell id="W5E3yV-P_dr5y2_dL0nt-3" value="Gerenciar tarefas" style="ellipse;whiteSpace=wrap;html=1;" parent="1" vertex="1">
          <mxGeometry x="340" y="340" width="120" height="80" as="geometry" />
        </mxCell>
        <mxCell id="iCuu217W0c6Vcr2kREvH-3" value="&lt;font size=&quot;1&quot; style=&quot;&quot;&gt;&lt;b style=&quot;font-size: 15px;&quot;&gt;API - Lista de tarefas&lt;/b&gt;&lt;/font&gt;" style="text;html=1;align=center;verticalAlign=middle;resizable=0;points=[];autosize=1;strokeColor=none;fillColor=none;" vertex="1" parent="1">
          <mxGeometry x="315" y="260" width="170" height="30" as="geometry" />
        </mxCell>
      </root>
    </mxGraphModel>
  </diagram>
</mxfile>
